<svg class="border shadow-md" viewBox="0 0 1013.76 570.24" style="width: 1013.76px; height: 570.24px;" xmlns="http://www.w3.org/2000/svg" preserveAspectRatio="none"><rect class="bg" id="bg" x="0" y="0" width="1013.76" height="570.24" fill="#ffffff"></rect><g transform="translate(-356.4 213.84000000000003) scale(1)"><path d="M570.5,470Q488,584,361,576Q234,568,160,462Q86,356,145.5,225Q205,94,349.5,105.5Q494,117,573.5,236.5Q653,356,570.5,470Z" fill="none" stroke="#ffca56" stroke-width="10"></path></g><g transform="translate(657.36 -356.4) scale(1)"><path d="M588.5,508Q532,660,383,614.5Q234,569,153.5,462.5Q73,356,150,244Q227,132,352,140Q477,148,561,252Q645,356,588.5,508Z" fill="none" stroke="#ffca56" stroke-width="10"></path></g></svg>