<svg class="border shadow-md" viewBox="0 0 1013.76 570.24" xmlns="http://www.w3.org/2000/svg" preserveAspectRatio="none" style="width: 1013.76px; height: 570.24px;"><rect class="bg" id="bg" x="0" y="0" width="1013.76" height="570.24" fill="#ffffff"/><path d="M10.5,8Q10,10,8,11Q6,12,4,11Q2,10,1.5,8Q1,6,1.5,4Q2,2,4,1Q6,0,8,1Q10,2,10.5,4Q11,6,10.5,8Z" stroke="none" fill="#ffadad" transform="translate(334.1, 440.1) scale(21.58)"/><polygon points="0,10 10,10 5,0" stroke="#ffd6a5" fill="#ffd6a5" transform="translate(894.25, 400.25) scale(19.15)"/><path d="M9.5,8.5Q8,11,4.5,10Q1,9,1.5,6Q2,3,5,2Q8,1,9.5,3.5Q11,6,9.5,8.5Z" stroke="#fdffb6" fill="none" transform="translate(31.960000000000008, 749.96) scale(19.008)"/><polygon points="0,10 10,10 5,0" stroke="#caffbf" fill="none" transform="translate(-37.03999999999999, 24.960000000000008) scale(19.008)"/><polygon points="6,2 10,4 10,8 6,10 2,8 2,4" stroke="#9bf6ff" fill="none" transform="translate(745.96, 151.96) scale(19.008)" stroke-linejoin="round"/><polygon points="0,10 10,10 5,0" stroke="#a0c4ff" fill="#a0c4ff" stroke-linejoin="round" transform="translate(804.96, 383.96000000000004) scale(19.008)"/><polygon points="6,2 10,4 10,8 6,10 2,8 2,4" stroke="#bdb2ff" fill="none" stroke-linejoin="round" transform="translate(760.95, 95.94999999999999) scale(23.01)"/><path d="M10,7.5Q9,9,7.5,9Q6,9,4,9.5Q2,10,1.5,8Q1,6,1.5,4Q2,2,4,2Q6,2,7.5,2.5Q9,3,10,4.5Q11,6,10,7.5Z" stroke="none" fill="#E8CAFF" transform="translate(609.96, 816.96) scale(19.008)"/></svg>