<?xml version="1.0" encoding="iso-8859-1"?>
<!-- Generator: Adobe Illustrator 19.0.0, SVG Export Plug-In . SVG Version: 6.00 Build 0)  -->
<svg version="1.1" id="Layer_1" xmlns="http://www.w3.org/2000/svg" xmlns:xlink="http://www.w3.org/1999/xlink" x="0px" y="0px"
	 viewBox="0 0 512 512" style="enable-background:new 0 0 512 512;" xml:space="preserve">
<path style="fill:#FCD577;" d="M223.738,47.981L5.047,426.767c-14.339,24.835,3.584,55.879,32.261,55.879h437.384
	c28.677,0,46.6-31.044,32.261-55.879L288.262,47.981C273.923,23.146,238.077,23.146,223.738,47.981z"/>
<path style="fill:#EAC36E;" d="M474.692,463.121H37.309c-6.503,0-12.101-3.23-15.354-8.863c-3.253-5.636-3.253-12.098-0.002-17.729
	L240.647,57.743c3.253-5.633,8.85-8.865,15.354-8.865c6.506,0,12.101,3.23,15.354,8.865l218.691,378.786
	c3.252,5.631,3.253,12.093,0.001,17.728C486.792,459.891,481.195,463.121,474.692,463.121z M256.001,64.261
	c-1.251,0-1.69,0.58-2.033,1.174L35.275,444.22c-0.342,0.593-0.624,1.264,0.001,2.348c0.625,1.081,1.347,1.173,2.033,1.173h437.384
	c0.685,0,1.406-0.091,2.034-1.175c0.624-1.082,0.341-1.75-0.001-2.344L258.032,65.434C257.689,64.84,257.249,64.261,256.001,64.261z
	"/>
<polygon style="fill:#FF6F52;" points="319.892,208.545 225.384,208.545 181.832,303.238 216.069,303.238 180.276,421.105 
	295.437,303.238 253.419,303.238 "/>
<g>
</g>
<g>
</g>
<g>
</g>
<g>
</g>
<g>
</g>
<g>
</g>
<g>
</g>
<g>
</g>
<g>
</g>
<g>
</g>
<g>
</g>
<g>
</g>
<g>
</g>
<g>
</g>
<g>
</g>
</svg>
