<?xml version="1.0" encoding="iso-8859-1"?>
<!-- Generator: Adobe Illustrator 19.0.0, SVG Export Plug-In . SVG Version: 6.00 Build 0)  -->
<svg version="1.1" id="Layer_1" xmlns="http://www.w3.org/2000/svg" xmlns:xlink="http://www.w3.org/1999/xlink" x="0px" y="0px"
	 viewBox="0 0 512 512" style="enable-background:new 0 0 512 512;" xml:space="preserve">
<path style="fill:#FFD155;" d="M472.178,438.716H39.822C17.864,438.716,0,420.852,0,398.894V113.106
	c0-11.617,5.055-22.625,13.872-30.202c5.893-5.065,14.463-5.51,20.847-1.083l462.007,320.306c9.169,6.356,9.869,19.685,1.405,26.965
	C490.917,435.298,481.7,438.716,472.178,438.716z"/>
<g>
	<path style="fill:#FFBE00;" d="M496.726,402.128L256,235.233v203.482h216.178c9.522,0,18.739-3.418,25.954-9.623
		C506.597,421.812,505.896,408.484,496.726,402.128z"/>
	<path style="fill:#FFBE00;" d="M477.28,430.179L246.277,270.025c-9.779-6.779-9.785-21.27,0-28.051L477.28,81.821
		c6.383-4.426,14.954-3.983,20.848,1.083C506.945,90.482,512,101.49,512,113.106v285.787c0,11.617-5.055,22.625-13.872,30.202
		C492.23,434.166,483.657,434.602,477.28,430.179z"/>
</g>
<path style="fill:#FFAF00;" d="M498.128,82.904c-5.894-5.067-14.465-5.509-20.848-1.083L256,235.233v41.533l221.28,153.412
	c6.376,4.423,14.95,3.987,20.848-1.083C506.945,421.518,512,410.51,512,398.894V113.106C512,101.49,506.945,90.482,498.128,82.904z"
	/>
<path style="fill:#FFE49C;" d="M246.277,270.025L15.274,109.872c-9.169-6.356-9.869-19.685-1.405-26.965
	c7.215-6.204,16.432-9.622,25.954-9.622h432.356c9.522,0,18.739,3.417,25.954,9.622c8.458,7.276,7.77,20.605-1.405,26.965
	L265.723,270.025C259.875,274.08,252.124,274.08,246.277,270.025z"/>
<path style="fill:#FFD155;" d="M498.132,82.908c-7.215-6.205-16.432-9.623-25.954-9.623H256v199.782c3.4,0,6.799-1.014,9.723-3.041
	l231.003-160.154C505.903,103.512,506.59,90.183,498.132,82.908z"/>
<g>
</g>
<g>
</g>
<g>
</g>
<g>
</g>
<g>
</g>
<g>
</g>
<g>
</g>
<g>
</g>
<g>
</g>
<g>
</g>
<g>
</g>
<g>
</g>
<g>
</g>
<g>
</g>
<g>
</g>
</svg>
